<svg width="18" height="18" viewBox="0 0 18 18" fill="none" xmlns="http://www.w3.org/2000/svg">
<path d="M10.9686 6.75L10.1248 8.4375H7.31232L8.15607 6.75H5.79357C3.37482 6.75 1.29357 8.55 1.12482 10.9688C0.956071 13.5562 3.03732 15.75 5.62482 15.75C6.91857 15.75 8.09982 15.1875 8.88732 14.3438C11.0248 12.0375 13.7811 10.4062 16.8748 9.5625V6.75H10.9686Z" stroke="url(#paint0_linear_4595_2120)" stroke-width="1.5" stroke-miterlimit="10" stroke-linecap="round" stroke-linejoin="round"/>
<path d="M5.625 12.9375C6.55698 12.9375 7.3125 12.182 7.3125 11.25C7.3125 10.318 6.55698 9.5625 5.625 9.5625C4.69302 9.5625 3.9375 10.318 3.9375 11.25C3.9375 12.182 4.69302 12.9375 5.625 12.9375Z" stroke="url(#paint1_linear_4595_2120)" stroke-width="1.5" stroke-miterlimit="10" stroke-linecap="round" stroke-linejoin="round"/>
<path d="M9.5625 2.25V3.9375" stroke="url(#paint2_linear_4595_2120)" stroke-width="1.5" stroke-miterlimit="10" stroke-linecap="round" stroke-linejoin="round"/>
<path d="M6.80664 3.42969L7.98789 4.61094" stroke="url(#paint3_linear_4595_2120)" stroke-width="1.5" stroke-miterlimit="10" stroke-linecap="round" stroke-linejoin="round"/>
<path d="M12.3199 3.42969L11.1387 4.61094" stroke="url(#paint4_linear_4595_2120)" stroke-width="1.5" stroke-miterlimit="10" stroke-linecap="round" stroke-linejoin="round"/>
<defs>
<linearGradient id="paint0_linear_4595_2120" x1="1.11523" y1="6.75" x2="7.9617" y2="20.5016" gradientUnits="userSpaceOnUse">
<stop stop-color="#F26138"/>
<stop offset="0.46875" stop-color="#EE3A35"/>
<stop offset="1" stop-color="#F5873C"/>
</linearGradient>
<linearGradient id="paint1_linear_4595_2120" x1="3.9375" y1="9.5625" x2="7.125" y2="13.2187" gradientUnits="userSpaceOnUse">
<stop stop-color="#F26138"/>
<stop offset="0.46875" stop-color="#EE3A35"/>
<stop offset="1" stop-color="#F5873C"/>
</linearGradient>
<linearGradient id="paint2_linear_4595_2120" x1="9.5625" y1="2.25" x2="11.0584" y2="3.26683" gradientUnits="userSpaceOnUse">
<stop stop-color="#F26138"/>
<stop offset="0.46875" stop-color="#EE3A35"/>
<stop offset="1" stop-color="#F5873C"/>
</linearGradient>
<linearGradient id="paint3_linear_4595_2120" x1="6.80664" y1="3.42969" x2="7.92227" y2="4.70937" gradientUnits="userSpaceOnUse">
<stop stop-color="#F26138"/>
<stop offset="0.46875" stop-color="#EE3A35"/>
<stop offset="1" stop-color="#F5873C"/>
</linearGradient>
<linearGradient id="paint4_linear_4595_2120" x1="11.1387" y1="3.42969" x2="12.2543" y2="4.70938" gradientUnits="userSpaceOnUse">
<stop stop-color="#F26138"/>
<stop offset="0.46875" stop-color="#EE3A35"/>
<stop offset="1" stop-color="#F5873C"/>
</linearGradient>
</defs>
</svg>
