<svg width="29" height="28" viewBox="0 0 29 28" fill="none" xmlns="http://www.w3.org/2000/svg">
<path d="M19.3333 5.45082C19.3333 8.46123 17.1694 10.9016 14.5 10.9016C11.8306 10.9016 9.66667 8.46123 9.66667 5.45082C9.66667 2.44042 11.8306 0 14.5 0C17.1694 0 19.3333 2.44042 19.3333 5.45082Z" fill="#448DF0"/>
<path d="M27.3889 9.0847C27.3889 11.0916 25.9463 12.7186 24.1667 12.7186C22.3871 12.7186 20.9444 11.0916 20.9444 9.0847C20.9444 7.07777 22.3871 5.45082 24.1667 5.45082C25.9463 5.45082 27.3889 7.07777 27.3889 9.0847Z" fill="#448DF0"/>
<path d="M20.9444 21.8033C20.9444 17.7894 18.0592 14.5355 14.5 14.5355C10.9408 14.5355 8.05556 17.7894 8.05556 21.8033V27.2541H20.9444V21.8033Z" fill="#448DF0"/>
<path d="M8.05556 9.0847C8.05556 11.0916 6.61292 12.7186 4.83333 12.7186C3.05375 12.7186 1.61111 11.0916 1.61111 9.0847C1.61111 7.07777 3.05375 5.45082 4.83333 5.45082C6.61292 5.45082 8.05556 7.07777 8.05556 9.0847Z" fill="#448DF0"/>
<path d="M24.1667 27.2541V21.8033C24.1667 19.888 23.7287 18.088 22.9595 16.5238C23.3454 16.412 23.7499 16.3525 24.1667 16.3525C26.836 16.3525 29 18.7929 29 21.8033V27.2541H24.1667Z" fill="#448DF0"/>
<path d="M6.04048 16.5238C5.27131 18.088 4.83333 19.888 4.83333 21.8033V27.2541H0V21.8033C0 18.7929 2.16396 16.3525 4.83333 16.3525C5.25014 16.3525 5.65463 16.412 6.04048 16.5238Z" fill="#448DF0"/>
</svg>
