<svg width="50" height="40" viewBox="0 0 50 40" fill="none" xmlns="http://www.w3.org/2000/svg">
<path fill-rule="evenodd" clip-rule="evenodd" d="M3.39354 11.9141C1.51934 11.9141 0 13.4334 0 15.3076V36.2669C0 38.1411 1.51934 39.6604 3.39354 39.6604H33.5112C35.3854 39.6604 36.9048 38.1411 36.9048 36.2669V15.3076C36.9048 13.4334 35.3854 11.9141 33.5112 11.9141H3.39354ZM18.4535 32.7326C21.8505 32.7326 24.6043 29.6269 24.6043 25.796C24.6043 21.965 21.8505 18.8594 18.4535 18.8594C15.0565 18.8594 12.3027 21.965 12.3027 25.796C12.3027 29.6269 15.0565 32.7326 18.4535 32.7326Z" fill="#69AB83"/>
<path fill-rule="evenodd" clip-rule="evenodd" d="M47.6199 11.9066C47.6199 17.1665 43.3559 21.4304 38.0961 21.4304C32.8362 21.4304 28.5723 17.1665 28.5723 11.9066C28.5723 6.64677 32.8362 2.38281 38.0961 2.38281C43.3559 2.38281 47.6199 6.64677 47.6199 11.9066ZM39.2866 16.6685C39.2866 17.326 38.7536 17.859 38.0961 17.859C37.4386 17.859 36.9056 17.326 36.9056 16.6685C36.9056 16.011 37.4386 15.4781 38.0961 15.4781C38.7536 15.4781 39.2866 16.011 39.2866 16.6685ZM38.0961 5.95424C37.4386 5.95424 36.9056 6.48724 36.9056 7.14472V11.9066C36.9056 12.5641 37.4386 13.0971 38.0961 13.0971C38.7536 13.0971 39.2866 12.5641 39.2866 11.9066V7.14472C39.2866 6.48724 38.7536 5.95424 38.0961 5.95424Z" fill="url(#paint0_linear_4019_33199)"/>
<defs>
<linearGradient id="paint0_linear_4019_33199" x1="28.5723" y1="2.38281" x2="46.5617" y2="23.0177" gradientUnits="userSpaceOnUse">
<stop stop-color="#F26138"/>
<stop offset="0.46875" stop-color="#EE3A35"/>
<stop offset="1" stop-color="#F5873C"/>
</linearGradient>
</defs>
</svg>
