<svg width="29" height="25" viewBox="0 0 29 25" fill="none" xmlns="http://www.w3.org/2000/svg">
<path fill-rule="evenodd" clip-rule="evenodd" d="M2 0C0.895431 0 0 0.895429 0 2V14.3525C0 15.457 0.895431 16.3525 2 16.3525H3.625V4.09375H21.75V2C21.75 0.89543 20.8546 0 19.75 0H2ZM7.25 10.1719C7.25 9.0673 8.14543 8.17187 9.25 8.17187H27C28.1046 8.17187 29 9.0673 29 10.1719V22.5243C29 23.6289 28.1046 24.5243 27 24.5243H9.25C8.14543 24.5243 7.25 23.6289 7.25 22.5243V10.1719ZM18.125 20.4419C20.127 20.4419 21.75 18.6115 21.75 16.3537C21.75 14.0959 20.127 12.2656 18.125 12.2656C16.123 12.2656 14.5 14.0959 14.5 16.3537C14.5 18.6115 16.123 20.4419 18.125 20.4419Z" fill="#69AB83"/>
</svg>
