<svg width="38" height="40" viewBox="0 0 38 40" fill="none" xmlns="http://www.w3.org/2000/svg">
<path fill-rule="evenodd" clip-rule="evenodd" d="M8.21053 0C7.07689 0 6.1579 0.918994 6.1579 2.05263V4.10526H4.10526C1.83799 4.10526 0 5.94325 0 8.21053V28.7368C0 31.0041 1.83799 32.8421 4.10526 32.8421H28.7368C31.0041 32.8421 32.8421 31.0041 32.8421 28.7368V8.21053C32.8421 5.94325 31.0041 4.10526 28.7368 4.10526H26.6842V2.05263C26.6842 0.918995 25.7652 0 24.6316 0C23.4979 0 22.5789 0.918994 22.5789 2.05263V4.10526H10.2632V2.05263C10.2632 0.918995 9.34416 0 8.21053 0ZM8.21053 10.2632C7.07689 10.2632 6.1579 11.1822 6.1579 12.3158C6.1579 13.4494 7.07689 14.3684 8.21053 14.3684H24.6316C25.7652 14.3684 26.6842 13.4494 26.6842 12.3158C26.6842 11.1822 25.7652 10.2632 24.6316 10.2632H8.21053Z" fill="#448DF0"/>
<path d="M22 24V28.4901H22.5222M36.3128 30.2862C35.8709 26.7423 32.8478 24 29.1842 24C26.1692 24 23.588 25.8573 22.5222 28.4901M22.5222 28.4901H26.4901M36.3684 38.3684V33.8783H35.8462M35.8462 33.8783C34.7804 36.5112 32.1992 38.3684 29.1842 38.3684C25.5206 38.3684 22.4975 35.6261 22.0556 32.0822M35.8462 33.8783H31.8783" stroke="url(#paint0_linear_4019_33230)" stroke-width="2.5" stroke-linecap="round" stroke-linejoin="round"/>
<defs>
<linearGradient id="paint0_linear_4019_33230" x1="22" y1="24" x2="35.5702" y2="39.5658" gradientUnits="userSpaceOnUse">
<stop stop-color="#F26138"/>
<stop offset="0.46875" stop-color="#EE3A35"/>
<stop offset="1" stop-color="#F5873C"/>
</linearGradient>
</defs>
</svg>
