<svg width="20" height="20" viewBox="0 0 20 20" fill="none" xmlns="http://www.w3.org/2000/svg">
<g clip-path="url(#clip0_4595_2130)">
<path fill-rule="evenodd" clip-rule="evenodd" d="M18.4375 11.25H1.5625V2.5C1.5625 1.81 2.1225 1.25 2.8125 1.25H17.1875C17.8775 1.25 18.4375 1.81 18.4375 2.5V11.25ZM18.4375 13.75C18.4375 14.44 17.8775 15 17.1875 15H2.8125C2.1225 15 1.5625 14.44 1.5625 13.75V12.5H18.4375V13.75ZM9.0625 16.25H11.5625V18.75H9.0625V16.25ZM17.1875 0H2.8125C1.43187 0 0.3125 1.11937 0.3125 2.5V13.75C0.3125 15.1306 1.43187 16.25 2.8125 16.25H7.8125V18.75H6.5625C6.21688 18.75 5.9375 19.03 5.9375 19.375C5.9375 19.7206 6.21688 20 6.5625 20H14.0625C14.4081 20 14.6875 19.7206 14.6875 19.375C14.6875 19.03 14.4081 18.75 14.0625 18.75H12.8125V16.25H17.1875C18.5681 16.25 19.6875 15.1306 19.6875 13.75V2.5C19.6875 1.11937 18.5681 0 17.1875 0Z" fill="url(#paint0_linear_4595_2130)"/>
</g>
<path d="M13.6004 2.89959L13.9475 2.55246V2.55246L13.6004 2.89959ZM8.4375 9.3883V9.87921C8.5677 9.87921 8.69256 9.82749 8.78463 9.73543L8.4375 9.3883ZM7.125 9.3883H6.63409C6.63409 9.65943 6.85388 9.87921 7.125 9.87921V9.3883ZM7.125 8.04915L6.77787 7.70203C6.68581 7.79409 6.63409 7.91896 6.63409 8.04915H7.125ZM12.6217 3.24671C12.7961 3.07231 13.0789 3.07231 13.2533 3.24671L13.9475 2.55246C13.3897 1.99463 12.4853 1.99463 11.9274 2.55246L12.6217 3.24671ZM13.2533 3.24671C13.4277 3.42112 13.4277 3.70388 13.2533 3.87829L13.9475 4.57254C14.5053 4.01471 14.5053 3.11029 13.9475 2.55246L13.2533 3.24671ZM13.2533 3.87829L8.09037 9.04118L8.78463 9.73543L13.9475 4.57254L13.2533 3.87829ZM8.4375 8.8974H7.125V9.87921H8.4375V8.8974ZM11.9274 2.55246L6.77787 7.70203L7.47213 8.39628L12.6217 3.24671L11.9274 2.55246ZM6.63409 8.04915V9.3883H7.61591V8.04915H6.63409ZM11.3649 3.80921L12.6908 5.13504L13.385 4.44079L12.0592 3.11496L11.3649 3.80921Z" fill="url(#paint1_linear_4595_2130)"/>
<defs>
<linearGradient id="paint0_linear_4595_2130" x1="0.3125" y1="0" x2="19.2739" y2="21.0702" gradientUnits="userSpaceOnUse">
<stop stop-color="#F26138"/>
<stop offset="0.46875" stop-color="#EE3A35"/>
<stop offset="1" stop-color="#F5873C"/>
</linearGradient>
<linearGradient id="paint1_linear_4595_2130" x1="7.125" y1="2.625" x2="13.5143" y2="9.93943" gradientUnits="userSpaceOnUse">
<stop stop-color="#F26138"/>
<stop offset="0.46875" stop-color="#EE3A35"/>
<stop offset="1" stop-color="#F5873C"/>
</linearGradient>
<clipPath id="clip0_4595_2130">
<rect width="20" height="20" fill="white"/>
</clipPath>
</defs>
</svg>
