<svg width="39" height="39" viewBox="0 0 39 39" fill="none" xmlns="http://www.w3.org/2000/svg">
<path d="M20.2685 4.0561C19.778 3.84588 19.2228 3.84588 18.7322 4.0561L5.08225 9.9061C4.36526 10.2134 3.90039 10.9184 3.90039 11.6984C3.90039 12.4785 4.36526 13.1835 5.08225 13.4908L10.2386 15.7006C10.4261 15.4882 10.6612 15.3152 10.9322 15.199L18.7322 11.8561C19.7221 11.4319 20.8685 11.8904 21.2927 12.8803C21.717 13.8702 21.2584 15.0166 20.2685 15.4408L14.9504 17.72L18.7322 19.3408C19.2228 19.551 19.778 19.551 20.2685 19.3408L33.9185 13.4908C34.6355 13.1835 35.1004 12.4785 35.1004 11.6984C35.1004 10.9184 34.6355 10.2134 33.9185 9.9061L20.2685 4.0561Z" fill="#448DF0"/>
<path d="M6.45498 18.3221L9.75039 19.7344V27.7326C9.08199 27.581 8.39914 27.4676 7.70427 27.3947C6.78822 27.2987 6.0643 26.5747 5.96825 25.6587C5.89029 24.9152 5.85039 24.161 5.85039 23.3981C5.85039 21.6499 6.05984 19.9498 6.45498 18.3221Z" fill="#448DF0"/>
<path d="M18.1353 32.3148C16.8232 31.0285 15.3111 29.9473 13.6504 29.1219V21.4058L17.196 22.9253C18.6675 23.556 20.3333 23.556 21.8048 22.9253L32.5458 18.3221C32.9409 19.9498 33.1504 21.6499 33.1504 23.3981C33.1504 24.161 33.1105 24.9152 33.0325 25.6587C32.9365 26.5747 32.2126 27.2987 31.2965 27.3947C27.2545 27.8185 23.6195 29.615 20.8655 32.3148C20.1072 33.0582 18.8936 33.0582 18.1353 32.3148Z" fill="#448DF0"/>
<path d="M11.7004 35.0984C12.7773 35.0984 13.6504 34.2253 13.6504 33.1484V29.1219C12.4245 28.5126 11.1177 28.0427 9.75039 27.7326V33.1484C9.75039 34.2253 10.6234 35.0984 11.7004 35.0984Z" fill="#448DF0"/>
</svg>
