<svg width="18" height="18" viewBox="0 0 18 18" fill="none" xmlns="http://www.w3.org/2000/svg">
<path d="M14.25 15.75V3.75C14.25 2.92157 13.5784 2.25 12.75 2.25H5.25C4.42157 2.25 3.75 2.92157 3.75 3.75V15.75M14.25 15.75L15.75 15.75M14.25 15.75H10.5M3.75 15.75L2.25 15.75M3.75 15.75H7.5M6.75 5.24998H7.5M6.75 8.24998H7.5M10.5 5.24998H11.25M10.5 8.24998H11.25M7.5 15.75V12C7.5 11.5858 7.83579 11.25 8.25 11.25H9.75C10.1642 11.25 10.5 11.5858 10.5 12V15.75M7.5 15.75H10.5" stroke="url(#paint0_linear_4595_2109)" stroke-width="1.5" stroke-linecap="round" stroke-linejoin="round"/>
<defs>
<linearGradient id="paint0_linear_4595_2109" x1="2.25" y1="2.25" x2="15" y2="16.875" gradientUnits="userSpaceOnUse">
<stop stop-color="#F26138"/>
<stop offset="0.46875" stop-color="#EE3A35"/>
<stop offset="1" stop-color="#F5873C"/>
</linearGradient>
</defs>
</svg>
