<svg width="14" height="16" viewBox="0 0 14 16" fill="none" xmlns="http://www.w3.org/2000/svg">
<path d="M0.75 8.75V7.71042L1.675 7.01667C1.98801 6.78191 2.35638 6.62556 2.75 6.59071V10.9107C1.61227 10.8288 0.75 9.91297 0.75 8.75ZM13.25 8.75C13.25 9.16272 13.2086 9.56778 13.1298 9.96079L11.7475 10.7902C11.6515 10.8478 11.4728 10.8948 11.25 10.9108V6.59071C11.6436 6.62556 12.012 6.78191 12.325 7.01667L13.25 7.71042V8.75ZM8.5352 14.1816L8.63267 14.7664C8.44314 14.8149 8.2502 14.8541 8.05435 14.8833H8.05406H8.05358H8.05311H8.05264H8.05216H8.05169H8.05121H8.05074H8.05026H8.04978H8.0493H8.04883H8.04835H8.04787H8.04739H8.04691H8.04642H8.04594H8.04546H8.04498H8.04449H8.04401H8.04352H8.04304H8.04255H8.04207H8.04158H8.04109H8.0406H8.04012H8.03963H8.03914H8.03865H8.03816H8.03767H8.03718H8.03668H8.03619H8.0357H8.0352H8.03471H8.03422H8.03372H8.03323H8.03273H8.03224H8.03174H8.03124H8.03075H8.03025H8.02975H8.02925H8.02875H8.02826H8.02776H8.02726H8.02676H8.02626H8.02575H8.02525H8.02475H8.02425H8.02375H8.02325H8.02274H8.02224H8.02174H8.02123H8.02073H8.02022H8.01972H8.01921H8.01871H8.0182H8.0177H8.01719H8.01669H8.01618H8.01567H8.01517H8.01466H8.01415H8.01364H8.01313H8.01263H8.01212H8.01161H8.0111H8.01059H8.01008H8.00957H8.00906H8.00855H8.00804H8.00753H8.00702H8.00651H8.006H8.00549H8.00498H8.00447H8.00396H8.00345H8.00294H8.00242H8.00191H8.0014H8.00089H8.00038H7.99987H7.99935H7.99884H7.99833H7.99782H7.9973H7.99679H7.99628H7.99577H7.99525H7.99474H7.99423H7.99372H7.9932H7.99269H7.99218H7.99167H7.99115H7.99064H7.99013H7.98962H7.9891H7.98859H7.98808H7.98757H7.98705H7.98654H7.98603H7.98552H7.985H7.98449H7.98398H7.98347H7.98295H7.98244H7.98193H7.98142H7.98091H7.9804H7.97988H7.97937H7.97886H7.97835H7.97784H7.97733H7.97682H7.97631H7.9758H7.97529H7.97478H7.97427H7.97376H7.97325H7.97274H7.97223H7.97172H7.97121H7.97071H7.9702H7.96969H7.96918H7.96867H7.96817H7.96766H7.96715H7.96665H7.96614H7.96563H7.96513H7.96462H7.96412H7.96361H7.96311H7.9626H7.9621H7.9616H7.96109H7.96059H7.96009H7.95958H7.95908H7.95858H7.95808H7.95758H7.95708H7.95658H7.95608H7.95558H7.95508H7.95458H7.95408H7.95358H7.95308H7.95259H7.95209H7.95159H7.9511H7.9506H7.9501H7.94961H7.94911H7.94862H7.94813H7.94763H7.94714H7.94665H7.94616H7.94567H7.94518H7.94468H7.94419H7.94371H7.94322H7.94273H7.94224H7.94175H7.94127H7.94078H7.94029H7.93981H7.93932H7.93884H7.93836H7.93787H7.93739H7.93691H7.93643H7.93595H7.93547H7.93499H7.93451H7.93403H7.93355H7.93307H7.9326H7.93212H7.93164H7.93117H7.9307H7.93022H7.92975H7.92928H7.92881H7.92833H7.92786H7.92739H7.92693H7.92646H7.92599H7.92552H7.92506H7.92459H7.92413H7.92366H7.9232H7.92274H7.92227H7.92181H7.92135H7.92089H7.92043H7.91998H7.91952H7.91906H7.91861H7.91815H7.9177H7.91724H7.91679H7.91634H7.91589H7.91544H7.91499H7.91454H7.91409H7.91364H7.9132H7.91275H7.91231H7.91186H7.91142H7.91098H7.91053H7.91009H7.90966H7.90922H7.90878H7.90834H7.90791H7.90747H7.90704H7.9066H7.90617H7.90574H7.90531H7.90488H7.90445H7.90402H7.9036H7.90317H7.90275H7.90232H7.9019H7.90148H7.90106H7.90064H7.90022H7.8998H7.89938H7.89896H7.89855H7.89814H7.89772H7.89731H7.8969H7.89649H7.89608H7.89567H7.89527H7.89486H7.89446H7.89405H7.89365H7.89325H7.89285H7.89245H7.89205H7.89165H7.89126H7.89086H7.89047H7.89008H7.88968H7.88929H7.8889H7.88852H7.88813H7.88774H7.88736H7.88697H7.88659H7.88621H7.88583H7.88545H7.88507H7.8847H7.88432H7.88395H7.88357H7.8832H7.88283H7.88246H7.8821H7.88173H7.88136H7.881H7.88064H7.88027H7.87991H7.87955H7.8792H7.87884H7.87848H7.87813H7.87778H7.87742H7.87707H7.87673H7.87638H7.87603H7.87569H7.87534H7.875C7.72419 14.8833 7.59475 14.8438 7.41647 14.7027C7.24589 14.5579 7.16667 14.365 7.16667 14.175C7.16667 13.8309 7.47255 13.525 7.81667 13.525C8.15991 13.525 8.47048 13.7933 8.5352 14.1816Z" stroke="url(#paint0_linear_4595_2143)" stroke-width="1.5"/>
<defs>
<linearGradient id="paint0_linear_4595_2143" x1="0" y1="0" x2="14.8986" y2="15.3041" gradientUnits="userSpaceOnUse">
<stop stop-color="#F26138"/>
<stop offset="0.46875" stop-color="#EE3A35"/>
<stop offset="1" stop-color="#F5873C"/>
</linearGradient>
</defs>
</svg>
