<svg width="35" height="35" viewBox="0 0 35 35" fill="none" xmlns="http://www.w3.org/2000/svg">
<path d="M15.75 10.5C15.75 13.3995 13.3995 15.75 10.5 15.75C7.60051 15.75 5.25 13.3995 5.25 10.5C5.25 7.60051 7.60051 5.25 10.5 5.25C13.3995 5.25 15.75 7.60051 15.75 10.5Z" fill="#448DF0"/>
<path d="M29.75 10.5C29.75 13.3995 27.3995 15.75 24.5 15.75C21.6005 15.75 19.25 13.3995 19.25 10.5C19.25 7.60051 21.6005 5.25 24.5 5.25C27.3995 5.25 29.75 7.60051 29.75 10.5Z" fill="#448DF0"/>
<path d="M22.626 29.75C22.7077 29.1784 22.75 28.5942 22.75 28C22.75 25.1384 21.7689 22.506 20.1246 20.4209C21.4117 19.6762 22.9061 19.25 24.5 19.25C29.3325 19.25 33.25 23.1675 33.25 28V29.75H22.626Z" fill="#448DF0"/>
<path d="M10.5 19.25C15.3325 19.25 19.25 23.1675 19.25 28V29.75H1.75V28C1.75 23.1675 5.66751 19.25 10.5 19.25Z" fill="#448DF0"/>
</svg>
