<svg width="18" height="19" viewBox="0 0 18 19" fill="none" xmlns="http://www.w3.org/2000/svg">
<path d="M3.27825 14.5883C3.32325 14.5883 3.36825 14.5837 3.41325 14.5769L7.19775 13.9044C7.24275 13.8953 7.2855 13.8748 7.317 13.8406L16.8547 4.17817C16.8756 4.15708 16.8922 4.13203 16.9034 4.10446C16.9147 4.07688 16.9205 4.04732 16.9205 4.01747C16.9205 3.98762 16.9147 3.95805 16.9034 3.93048C16.8922 3.90291 16.8756 3.87786 16.8547 3.85677L13.1153 0.0661031C13.0725 0.0227942 13.0163 0 12.9555 0C12.8948 0 12.8385 0.0227942 12.7958 0.0661031L3.258 9.72854C3.22425 9.76273 3.204 9.80376 3.195 9.84935L2.53125 13.6833C2.50936 13.8054 2.51718 13.9311 2.55404 14.0495C2.59089 14.1678 2.65566 14.2753 2.74275 14.3626C2.89125 14.5085 3.078 14.5883 3.27825 14.5883ZM4.79475 10.613L12.9555 2.3478L14.6047 4.01861L6.444 12.2838L4.44375 12.6416L4.79475 10.613ZM17.28 16.503H0.72C0.32175 16.503 0 16.8289 0 17.2324V18.053C0 18.1533 0.081 18.2353 0.18 18.2353H17.82C17.919 18.2353 18 18.1533 18 18.053V17.2324C18 16.8289 17.6783 16.503 17.28 16.503Z" fill="#494848"/>
</svg>
